<svg xmlns="http://www.w3.org/2000/svg" viewBox="0 0 24 24" width="24" height="24">
  <path fill="currentColor" d="M12 2C6.477 2 2 6.477 2 12s4.477 10 10 10 10-4.477 10-10S17.523 2 12 2zm-.25 18c-1.794 0-3.419-.574-4.75-1.541 1.25-1.525 2.205-3.322 2.758-5.26h4.484c.553 1.938 1.508 3.735 2.758 5.26-1.331.967-2.956 1.541-4.75 1.541zm-5.884-2.068A8.958 8.958 0 0 1 3.5 12c0-1.32.291-2.569.816-3.682.707 1.27 1.655 2.392 2.787 3.317-.596 2.088-1.498 4.032-2.237 5.297zm6.134-4.932h-4.184a7.443 7.443 0 0 1-1.92-3.402A7.434 7.434 0 0 1 6.25 6h3.5c-.613 1.787-1.12 3.683-1.5 5.566zm1.684 0c-.395-1.931-.91-3.778-1.528-5.566h3.5a7.434 7.434 0 0 1-1.28 3.598 7.443 7.443 0 0 1-1.92 3.402zm4.768-2.598a7.437 7.437 0 0 1-1.92 3.402h-4.184c-.395-1.931-.91-3.778-1.528-5.566h3.5c.518 1.788 1.025 3.683 1.5 5.566.707-1.27 1.655-2.392 2.787-3.317a7.437 7.437 0 0 1 1.845-1.366zM20.5 12a8.958 8.958 0 0 1-2.364 5.932c-1.25-1.525-2.205-3.322-2.758-5.26h-4.484c-.553 1.938-1.508 3.735-2.758 5.26A8.958 8.958 0 0 1 3.5 12c0-4.971 4.029-9 9-9s9 4.029 9 9z"/>
</svg>
